<?xml version="1.0" standalone="no"?>
<!DOCTYPE svg PUBLIC "-//W3C//DTD SVG 20010904//EN"
 "http://www.w3.org/TR/2001/REC-SVG-20010904/DTD/svg10.dtd">
<svg version="1.0" xmlns="http://www.w3.org/2000/svg"
 width="512.000000pt" height="512.000000pt" viewBox="0 0 512.000000 512.000000"
 preserveAspectRatio="xMidYMid meet">
<metadata>
Created by potrace 1.14, written by Peter Selinger 2001-2017
</metadata>
<g transform="translate(0.000000,512.000000) scale(0.100000,-0.100000)"
fill="#000000" stroke="none">
<path d="M2430 5020 c-19 -5 -53 -18 -75 -30 -39 -20 -52 -20 -955 -20 -620 0
-935 -4 -975 -11 -33 -6 -78 -22 -101 -35 -47 -28 -115 -97 -137 -141 -35 -66
-37 -137 -37 -1056 l0 -910 -27 -56 c-27 -53 -28 -63 -28 -201 0 -139 1 -147
27 -198 l28 -54 0 -918 c0 -930 2 -985 37 -1053 21 -42 82 -106 128 -135 83
-52 70 -52 1064 -52 l924 0 56 -28 c53 -26 63 -27 201 -27 135 0 149 2 209 28
l64 27 926 0 c972 0 965 0 1047 43 34 18 116 102 134 137 39 75 40 95 40 1053
l0 927 27 52 c23 44 27 66 31 160 5 122 -10 219 -39 256 -18 24 -19 55 -19
956 0 972 -1 980 -43 1061 -18 37 -102 117 -143 138 -69 35 -122 37 -1054 37
l-919 0 -58 27 c-51 23 -72 27 -178 29 -66 2 -136 -1 -155 -6z m322 -42 c92
-42 135 -125 122 -230 -8 -61 -62 -249 -104 -358 -151 -391 -194 -573 -171
-721 27 -174 122 -285 299 -349 102 -37 166 -44 251 -30 191 32 329 188 506
570 173 375 207 435 291 508 70 63 136 67 238 15 61 -31 187 -158 216 -218 80
-166 -4 -276 -324 -422 -78 -36 -189 -87 -247 -114 -382 -175 -539 -336 -540
-551 -1 -118 60 -273 139 -356 61 -64 123 -99 208 -117 179 -38 277 -17 814
179 315 114 447 115 519 0 40 -63 54 -138 49 -259 -5 -109 -22 -162 -66 -208
-85 -90 -208 -85 -493 19 -430 158 -563 194 -704 194 -222 0 -362 -105 -440
-329 -71 -203 -1 -387 204 -535 75 -54 321 -182 461 -241 302 -126 450 -246
450 -362 0 -65 -53 -159 -132 -235 -155 -151 -276 -165 -383 -46 -65 73 -113
158 -220 390 -144 315 -200 412 -299 517 -127 134 -265 177 -435 135 -146 -36
-269 -128 -322 -239 -77 -164 -56 -349 86 -730 121 -325 163 -484 149 -563
-18 -103 -114 -168 -265 -179 -142 -9 -265 27 -315 93 -43 56 -50 117 -25 231
23 109 35 146 136 418 70 190 118 366 129 476 21 193 -77 370 -246 449 -264
123 -471 56 -650 -210 -48 -71 -176 -323 -232 -457 -74 -178 -186 -347 -256
-387 -49 -29 -131 -28 -190 3 -66 34 -163 123 -209 192 -68 102 -68 190 2 266
77 83 146 122 527 298 328 152 463 257 532 418 86 199 -31 492 -236 588 -53
25 -83 32 -158 36 -165 9 -278 -19 -743 -189 -189 -69 -241 -82 -335 -82 -150
0 -219 82 -228 274 -6 118 9 194 50 255 75 114 203 113 518 -1 537 -196 635
-217 814 -179 159 34 260 138 326 338 33 102 27 209 -19 301 -55 111 -131 183
-301 282 -74 43 -340 174 -355 174 -16 0 -245 116 -293 149 -70 48 -127 106
-141 144 -30 80 3 173 98 278 141 155 276 188 382 92 75 -68 128 -162 269
-473 140 -309 251 -468 389 -554 57 -36 169 -60 245 -51 74 8 201 54 258 93
101 69 159 165 179 293 13 82 7 143 -26 284 -21 88 -51 178 -186 546 -15 42
-37 122 -49 179 -20 90 -21 110 -11 157 14 62 48 106 102 134 63 31 107 38
225 35 93 -3 120 -7 166 -28z"/>
<path d="M2419 3056 c-25 -7 -70 -26 -100 -42 -65 -35 -178 -144 -206 -199
-139 -272 -37 -588 232 -721 l79 -39 141 0 141 0 79 39 c181 89 295 272 295
471 -1 88 -13 142 -51 222 -57 120 -194 235 -321 269 -65 17 -226 17 -289 0z"/>
</g>
</svg>
