<svg xmlns="http://www.w3.org/2000/svg" width="16" height="16" viewBox="0 0 256 256" version="1.1"><path d="M 61.106 42.564 C 55.427 47.342, 55.178 56, 60.573 61.068 C 62.463 62.844, 64.659 63.623, 68.824 63.994 L 74.500 64.500 74.500 127 L 74.500 189.500 68.824 190.006 C 64.659 190.377, 62.463 191.156, 60.573 192.932 C 55.178 198, 55.427 206.658, 61.106 211.436 L 64.153 214 113.028 214 C 164.762 214, 168.534 213.723, 177.500 209.265 C 195.361 200.385, 205.111 184.814, 205.216 165 C 205.300 149.178, 200.608 138.521, 188.673 127.428 L 181.847 121.083 185.079 116.385 C 191.815 106.595, 194.733 90.233, 191.921 78.028 C 189.131 65.922, 180.114 53.447, 169.570 47.105 C 158.247 40.296, 155.658 40, 107.348 40 L 64.153 40 61.106 42.564 M 100.233 89.173 L 100.500 114.500 122.927 114.770 C 148.904 115.082, 153.466 114.279, 160.198 108.210 C 171.405 98.108, 171.707 81.579, 160.872 71.301 C 154.213 64.983, 152.103 64.568, 124.733 64.189 L 99.965 63.846 100.233 89.173 M 100.667 139.667 C 100.300 140.033, 100 151.508, 100 165.167 L 100 190 129.250 189.994 C 146.072 189.991, 160.062 189.555, 162.177 188.967 C 168.767 187.137, 175.174 181.984, 178.299 176 C 180.829 171.154, 181.129 169.656, 180.824 163.403 C 180.541 157.620, 179.916 155.397, 177.452 151.403 C 174.051 145.889, 166.408 140.660, 160.268 139.645 C 155.188 138.805, 101.508 138.825, 100.667 139.667" stroke="none" fill="#000000" fill-rule="evenodd"/></svg>
