<svg xmlns="http://www.w3.org/2000/svg" width="16" height="16" viewBox="0 0 256 256" version="1.1"><path d="M 147.500 28.369 C 141.318 31.167, 144.208 22.478, 113.032 132 C 105.282 159.225, 98.316 183.525, 97.553 186 C 89.571 211.873, 88.821 218.052, 93.107 222.614 C 98.604 228.465, 108.916 227.452, 112.368 220.722 C 113.277 218.950, 125.310 177.900, 139.109 129.501 C 159.046 59.567, 164.089 40.700, 163.672 37.594 C 162.664 30.075, 154.288 25.297, 147.500 28.369 M 53.500 72.148 C 52.400 72.746, 40.803 83.870, 27.729 96.867 C 1.831 122.614, 0.473 124.527, 3.363 131.213 C 5.095 135.221, 51.547 181.489, 54.837 182.483 C 60.787 184.282, 68.275 180.287, 69.885 174.455 C 71.745 167.718, 70.234 165.499, 50.237 145.608 L 31.500 126.971 50.205 108.735 C 70.697 88.757, 72.131 86.584, 69.694 79.196 C 67.581 72.786, 59.109 69.099, 53.500 72.148 M 189.567 72.946 C 185.625 75.545, 184.078 78.620, 184.035 83.942 L 184 88.383 203.228 107.704 L 222.456 127.024 203.591 145.909 C 184.906 164.613, 184.722 164.840, 184.307 169.647 C 183.770 175.875, 186.341 180.298, 191.488 181.996 C 198.835 184.421, 199.749 183.777, 225.514 158.020 C 238.707 144.833, 250.073 132.660, 250.774 130.969 C 253.556 124.259, 251.944 121.976, 226.388 96.419 C 213.452 83.484, 201.744 72.473, 200.369 71.950 C 196.510 70.483, 192.783 70.827, 189.567 72.946" stroke="none" fill="#000000" fill-rule="evenodd"/></svg>
