<svg xmlns="http://www.w3.org/2000/svg" width="16" height="16" viewBox="0 0 256 256" version="1.1"><path d="M 106.389 42.002 C 89.484 45.822, 77.255 54.643, 70.862 67.628 C 64.970 79.596, 65.746 97.964, 72.572 108.108 C 74.458 110.909, 76 113.580, 76 114.043 C 76 114.507, 66.810 115.024, 55.578 115.193 C 35.515 115.495, 35.111 115.543, 32.567 117.935 C 26.936 123.230, 27.376 132.004, 33.514 136.832 L 36.270 139 128.150 139 L 220.029 139 223.765 135.577 C 227.152 132.472, 227.500 131.674, 227.500 127 C 227.500 122.326, 227.152 121.528, 223.765 118.423 L 220.029 115 176.572 115 L 133.115 115 122.494 111.521 C 107.430 106.586, 99.965 102.770, 95.143 97.540 C 91.234 93.299, 91 92.702, 91 86.973 C 91 79.936, 92.488 76.535, 97.486 72.146 C 102.231 67.980, 106.366 66.353, 115.931 64.889 C 125.045 63.494, 135.942 64.479, 155.061 68.426 C 167.247 70.942, 169.495 70.745, 173.721 66.786 C 177.166 63.559, 178.287 59.030, 176.776 54.444 C 174.506 47.559, 171.164 46.320, 140.566 41.027 C 131.559 39.468, 115.582 39.924, 106.389 42.002 M 161.752 152.581 C 161.432 152.901, 162.298 154.814, 163.675 156.831 C 168.372 163.710, 165.619 177.003, 158.349 182.547 C 151.476 187.790, 144.780 189.467, 131 189.397 C 117.420 189.328, 114.699 188.777, 94 181.910 C 87.125 179.629, 79.890 177.714, 77.923 177.653 C 67.683 177.338, 62.418 190.572, 69.834 197.988 C 72.412 200.565, 82.414 204.315, 101.500 209.857 C 123.343 216.201, 146.769 215.313, 163.697 207.501 C 181.041 199.496, 190.885 182.659, 189.760 162.924 C 189.487 158.146, 188.954 153.734, 188.573 153.119 C 187.854 151.955, 162.879 151.454, 161.752 152.581" stroke="none" fill="#000000" fill-rule="evenodd"/></svg>
