<svg xmlns="http://www.w3.org/2000/svg" width="16" height="16" viewBox="0 0 256 256" version="1.1"><path d="M209.8,219.2L173.0,219.2L172.2,218.4L169.9,218.4L168.3,217.7L164.0,213.3L162.5,210.2L162.5,202.4L163.2,201.6L163.2,200.0L164.8,198.5L164.8,197.7L169.1,194.2L170.7,194.2L171.5,193.4L176.5,193.0L176.5,191.4L171.1,180.5L171.1,178.9L168.7,174.2L167.5,173.0L87.7,173.0L85.7,176.5L85.7,178.1L83.4,182.0L83.4,183.6L80.2,189.1L79.5,193.0L84.5,193.4L87.7,194.9L92.0,199.3L92.8,200.8L92.8,202.4L93.5,203.2L93.5,209.4L91.2,214.1L88.5,216.9L85.3,218.4L83.8,218.4L83.0,219.2L46.2,219.2L45.4,218.4L43.0,218.4L41.5,217.7L37.2,213.3L35.6,210.2L35.6,201.6L37.2,198.5L42.3,194.2L43.8,194.2L44.6,193.4L51.7,193.4L52.8,192.2L54.4,189.1L54.4,187.5L56.7,183.6L56.7,182.0L59.1,178.1L59.1,176.5L61.4,172.6L61.4,171.1L64.6,165.6L64.6,164.0L69.3,154.6L69.3,153.1L72.4,147.6L72.4,146.0L77.1,136.6L77.1,135.0L79.5,131.1L79.5,129.6L82.6,124.1L82.6,122.5L87.3,113.1L87.3,111.6L90.4,106.1L90.4,104.5L92.8,100.6L92.8,99.0L95.1,95.1L95.1,93.5L97.5,89.6L97.5,88.1L100.6,82.6L100.6,81.0L102.9,77.1L102.9,75.5L105.3,71.6L105.3,70.1L107.6,66.1L107.6,64.6L110.8,59.1L110.8,57.5L113.1,53.6L113.1,52.1L115.5,48.1L115.5,46.6L117.8,41.9L121.3,38.3L124.5,36.8L131.5,36.8L134.7,38.3L139.0,43.4L139.0,45.0L141.3,48.9L141.3,50.5L144.4,56.0L144.4,57.5L146.8,61.4L146.8,63.0L149.1,66.9L149.1,68.5L152.3,74.0L152.3,75.5L154.6,79.5L154.6,81.0L160.1,92.0L160.1,93.5L163.2,99.0L163.2,100.6L165.6,104.5L165.6,106.1L167.9,110.0L167.9,111.6L171.1,117.0L171.1,118.6L173.4,122.5L173.4,124.1L176.5,129.6L176.5,131.1L178.9,135.0L178.9,136.6L182.0,142.1L182.0,143.7L184.4,147.6L184.4,149.1L186.7,153.1L186.7,154.6L189.9,160.1L189.9,161.7L192.2,165.6L192.2,167.1L195.3,172.6L195.3,174.2L197.7,178.1L197.7,179.7L200.8,185.2L200.8,186.7L203.2,190.6L203.2,192.2L204.3,193.4L211.4,193.4L214.5,194.9L217.3,196.9L220.4,202.4L220.4,209.4L219.6,210.2L218.8,213.3L214.5,217.7L213.0,218.4L210.6,218.4L209.8,219.2ZM157.0,147.6L157.0,146.0L153.8,140.5L153.8,139.0L148.4,128.0L148.4,126.4L146.0,122.5L146.0,121.0L142.9,115.5L142.9,113.9L140.5,110.0L140.5,108.4L138.2,104.5L138.2,102.9L135.0,97.5L135.0,95.9L132.7,92.0L132.7,90.4L129.6,84.9L128.8,81.8L127.6,80.6L127.2,82.6L124.9,86.5L124.9,88.1L121.7,93.5L121.7,95.1L119.4,99.0L119.4,100.6L113.9,111.6L113.9,113.1L108.4,124.1L108.4,125.7L106.1,129.6L106.1,131.1L100.6,142.1L100.6,143.7L99.0,146.0L99.0,147.6L157.0,147.6Z" fill="#000000" fill-rule="evenodd"/></svg>