<svg xmlns="http://www.w3.org/2000/svg" width="16" height="16" viewBox="0 0 256 256" version="1.1"><path d="M 10.315 51.464 C 3.799 54.298, 4 51.955, 4 125 C 4 197.526, 3.820 195.304, 9.967 198.483 C 13.629 200.377, 17.089 200.407, 21.452 198.585 C 27.263 196.157, 27.451 195.191, 28 165 L 28.500 137.500 66 137.500 L 103.500 137.500 104 165 C 104.539 194.643, 104.742 195.781, 109.980 198.490 C 113.633 200.379, 117.094 200.405, 121.466 198.579 C 128.231 195.752, 128 198.362, 127.996 124.800 C 127.993 60.848, 127.924 58.387, 126.044 55.304 C 123.427 51.013, 117.641 49.192, 111.996 50.883 C 104.738 53.058, 104.566 53.793, 104 84.953 L 103.500 112.500 66 112.500 L 28.500 112.500 28 85 C 27.451 54.809, 27.263 53.843, 21.452 51.415 C 17.260 49.664, 14.425 49.676, 10.315 51.464 M 186 51.119 C 177.838 52.433, 167.591 58.034, 157.783 66.541 C 148.263 74.798, 146.393 78.220, 148.074 84.307 C 149.854 90.752, 157.520 95.273, 163.083 93.158 C 164.420 92.650, 169.111 89.209, 173.507 85.511 C 183.764 76.884, 187.719 75.044, 196 75.044 C 211.514 75.044, 221.968 85.597, 221.990 101.282 C 222 108.164, 220.495 113.298, 217.277 117.358 C 215.858 119.148, 183.623 148.847, 153.827 175.817 C 146.964 182.028, 145.645 188.376, 149.863 194.886 C 153.066 199.831, 154.758 200, 201.018 200 C 248.283 200, 248.405 199.986, 251.483 194.033 C 253.476 190.179, 253.418 183.042, 251.369 180.117 C 248.133 175.497, 244.896 175, 218.032 175 C 204.264 175, 193 174.774, 193 174.497 C 193 173.811, 204.917 162.613, 220 149.126 C 241.816 129.618, 246.500 121.111, 246.500 101 C 246.500 87.047, 244.296 79.586, 237.503 70.537 C 225.471 54.511, 207.355 47.681, 186 51.119" stroke="none" fill="#000000" fill-rule="evenodd"/></svg>
