<svg xmlns="http://www.w3.org/2000/svg" width="16" height="16" viewBox="0 0 256 256" version="1.1"><path d="M 9.315 52.464 C 2.799 55.298, 3 52.955, 3 126 C 3 198.526, 2.820 196.304, 8.967 199.483 C 12.629 201.377, 16.089 201.407, 20.452 199.585 C 26.263 197.157, 26.451 196.191, 27 166 L 27.500 138.500 65 138.500 L 102.500 138.500 103 166 C 103.539 195.643, 103.742 196.781, 108.980 199.490 C 112.633 201.379, 116.094 201.405, 120.466 199.579 C 127.231 196.752, 127 199.362, 126.996 125.800 C 126.993 61.848, 126.924 59.387, 125.044 56.304 C 122.427 52.013, 116.641 50.192, 110.996 51.883 C 103.738 54.058, 103.566 54.793, 103 85.953 L 102.500 113.500 65 113.500 L 27.500 113.500 27 86 C 26.451 55.809, 26.263 54.843, 20.452 52.415 C 16.260 50.664, 13.425 50.676, 9.315 52.464 M 153.325 52.459 C 151.579 53.219, 149.371 55.030, 148.418 56.485 C 146.225 59.831, 146.262 67.225, 148.488 70.622 C 151.645 75.440, 154.947 76, 180.208 76 L 203.480 76 185.347 94.250 C 175.373 104.287, 166.715 113.483, 166.107 114.684 C 163.610 119.611, 166.135 127.299, 171.196 130.186 C 172.774 131.086, 179.489 131.662, 192.500 132.014 C 212.648 132.559, 215.048 133.097, 220.847 138.367 C 230.856 147.462, 229.119 165.319, 217.527 172.491 C 212.672 175.495, 212.637 175.501, 195.066 175.828 C 174.655 176.208, 173.411 175.765, 170.535 167.105 C 169.645 164.427, 168.069 161.467, 167.032 160.529 C 164.129 157.901, 158.175 156.897, 154.565 158.426 C 148 161.206, 145.658 166.589, 147.508 174.647 C 149.898 185.058, 156.560 193.024, 166.954 197.899 C 172.142 200.332, 173.620 200.522, 189.856 200.834 C 216.938 201.356, 225.602 198.981, 237.615 187.744 C 247.048 178.919, 251.160 169.997, 251.786 156.995 C 252.280 146.743, 250.876 139.598, 246.798 131.603 C 244.157 126.427, 235.601 117.437, 230.434 114.409 C 225.291 111.394, 215.532 108, 212.010 108 C 210.538 108, 209.022 107.689, 208.641 107.308 C 208.261 106.928, 216.511 98.014, 226.975 87.500 L 246 68.383 246 63.826 C 246 58.442, 243.343 54.459, 238.364 52.379 C 233.548 50.367, 157.972 50.438, 153.325 52.459" stroke="none" fill="#000000" fill-rule="evenodd"/></svg>
