<svg xmlns="http://www.w3.org/2000/svg" width="16" height="16" viewBox="0 0 256 256" version="1.1"><path d="M 9.315 53.464 C 2.799 56.298, 3 53.955, 3 127 C 3 199.526, 2.820 197.304, 8.967 200.483 C 12.632 202.378, 16.090 202.407, 20.466 200.579 C 26.662 197.990, 27 196.231, 27 166.550 L 27 140 65 140 L 103 140 103 166.550 C 103 195.735, 103.321 197.564, 108.967 200.483 C 112.632 202.378, 116.090 202.407, 120.466 200.579 C 127.231 197.752, 127 200.362, 126.996 126.800 C 126.993 62.848, 126.924 60.387, 125.044 57.304 C 120.932 50.560, 109.068 50.560, 104.956 57.304 C 103.153 60.261, 103.007 62.500, 103.004 87.250 L 103 114 65 114 L 27 114 27 87.450 C 27 57.769, 26.662 56.010, 20.466 53.421 C 16.260 51.664, 13.428 51.675, 9.315 53.464 M 172.164 53.689 C 170.329 54.593, 168.168 56.341, 167.361 57.572 C 165.256 60.785, 147 134.384, 147 139.657 C 147 144.397, 149.003 148.347, 152.392 150.291 C 153.888 151.149, 165.102 151.645, 191 152 L 227.500 152.500 228 173.500 C 228.343 187.899, 228.902 195.204, 229.780 196.740 C 232.547 201.582, 240.406 203.393, 246.033 200.483 C 252.182 197.303, 252 199.547, 251.996 126.800 C 251.993 62.848, 251.924 60.387, 250.044 57.304 C 247.427 53.013, 241.641 51.192, 235.996 52.883 C 228.563 55.110, 228.564 55.105, 228 92.954 L 227.500 126.500 201.250 126.767 C 186.813 126.913, 175 126.685, 175 126.259 C 175 125.833, 178.402 111.988, 182.560 95.492 C 187.188 77.130, 189.912 64.435, 189.585 62.754 C 188.766 58.538, 185.930 54.869, 182.328 53.364 C 178.133 51.611, 176.260 51.671, 172.164 53.689" stroke="none" fill="#000000" fill-rule="evenodd"/></svg>
