<svg xmlns="http://www.w3.org/2000/svg" width="16" height="16" viewBox="0 0 256 256" version="1.1"><path d="M 27.037 27.164 C 19.637 29.308, 12.427 36.300, 7.198 46.401 L 3.524 53.500 3.512 77.500 C 3.501 99.938, 3.630 101.677, 5.500 104.219 C 8.071 107.713, 13.729 108.060, 16.595 104.899 C 18.304 103.013, 18.558 100.569, 19.061 81.149 C 19.682 57.186, 20.233 54.713, 26.115 49.500 L 29.500 46.500 128 46.500 L 226.500 46.500 229.885 49.500 C 236.595 55.447, 236.447 54.198, 237 109.647 C 237.474 157.169, 237.600 159.903, 239.405 161.897 C 242.116 164.890, 247.022 164.671, 250.076 161.418 L 252.500 158.837 252.500 106.168 L 252.500 53.500 248.674 46 C 244.162 37.155, 239.207 31.678, 233 28.676 L 228.500 26.500 129.500 26.331 C 65.728 26.221, 29.268 26.518, 27.037 27.164 M 30.988 88.282 C 27.375 91.192, 27 94.526, 27 123.726 C 27 154.200, 27.468 157.842, 31.673 160.093 C 33.545 161.094, 34.480 161.081, 36.452 160.026 C 39.930 158.164, 41 154.125, 41 142.851 L 41 133 48.500 133 L 56 133 56.073 143.250 C 56.155 154.783, 57.633 158.784, 62.434 160.480 C 64.852 161.334, 65.516 161.102, 67.604 158.674 L 70 155.888 70 124 L 70 92.112 67.671 89.404 C 64.674 85.920, 60.781 86.671, 57.973 91.277 C 56.357 93.926, 56.007 96.325, 56.004 104.750 L 56 115 48.500 115 L 41 115 41 105.065 C 41 99.601, 40.532 93.900, 39.961 92.397 C 38.138 87.602, 34.120 85.759, 30.988 88.282 M 82.360 88.460 C 81.214 89.263, 79.729 91.239, 79.062 92.851 C 78.023 95.359, 78.141 96.357, 79.881 99.767 C 82.170 104.253, 83.483 105, 89.082 105 L 93 105 93 126.951 C 93 152.143, 93.852 158.156, 97.669 159.895 C 100.843 161.341, 103.059 160.696, 105.002 157.761 C 106.210 155.937, 106.560 150.615, 106.812 130.250 L 107.125 105 112.023 105 C 117.734 105, 120.434 102.831, 121.448 97.427 C 122.101 93.946, 121.222 91.365, 118.435 88.578 C 116.202 86.345, 85.524 86.244, 82.360 88.460 M 133.635 89.073 L 131 91.145 131 123.884 C 131 155.449, 131.073 156.701, 133.039 158.811 C 135.752 161.724, 138.565 161.573, 141.548 158.354 C 143.943 155.770, 144 155.327, 144 139.354 C 144 129.668, 144.388 123, 144.952 123 C 145.476 123, 147.295 125.021, 148.994 127.492 C 154.021 134.797, 157.702 134.601, 162.649 126.765 C 163.956 124.694, 165.469 123, 166.013 123 C 166.618 123, 167 128.782, 167 137.966 C 167 154.354, 168.281 159.531, 172.606 160.616 C 175.365 161.308, 179.596 158.636, 180.382 155.703 C 181.166 152.778, 181.146 95.145, 180.359 92.210 C 179.646 89.549, 174.674 86.646, 172.200 87.447 C 171.265 87.749, 169.379 89.685, 168.009 91.748 C 166.639 93.812, 165.289 95.725, 165.009 96 C 164.729 96.275, 163.648 98.075, 162.606 100 C 160.145 104.547, 156.997 108, 155.313 108 C 154.577 108, 152.331 105.412, 150.320 102.250 C 148.310 99.088, 146.291 96.350, 145.833 96.167 C 145.375 95.983, 145 95.296, 145 94.640 C 145 92.898, 139.357 87, 137.691 87 C 136.909 87, 135.084 87.933, 133.635 89.073 M 199.405 89.105 C 197.613 91.085, 197.500 93.158, 197.500 124 C 197.500 154.987, 197.606 156.907, 199.429 158.922 C 201.243 160.926, 202.166 161.038, 214.823 160.777 C 227.889 160.508, 228.342 160.426, 230.099 158 C 233.167 153.764, 233.346 150.809, 230.766 146.975 C 228.428 143.501, 228.424 143.500, 219.714 143.211 L 211 142.922 211 118.911 C 211 93.468, 210.511 90.414, 206.055 88.030 C 203.190 86.496, 201.522 86.766, 199.405 89.105 M 6.712 125.391 C 5.293 126.707, 3.838 129.348, 3.479 131.261 C 3.120 133.174, 2.986 148.861, 3.181 166.120 L 3.537 197.500 6.917 204.230 C 11.066 212.489, 17.037 219.161, 23 222.204 L 27.500 224.500 128 224.500 L 228.500 224.500 233.192 222.102 C 239.699 218.776, 244.214 213.771, 248.551 205.078 C 251.862 198.442, 252.267 196.783, 252.377 189.427 C 252.494 181.626, 252.354 181.064, 249.698 178.599 C 243.729 173.060, 238.126 176.639, 236.546 187 C 235.374 194.692, 234.059 197.625, 230.217 201.121 L 226.504 204.500 128.002 204.500 L 29.500 204.500 26.115 201.500 C 19.717 195.829, 19.561 194.887, 19.188 159.776 L 18.852 128.053 15.849 125.526 C 12.104 122.375, 10 122.344, 6.712 125.391" stroke="none" fill="#000000" fill-rule="evenodd"/></svg>
