<svg xmlns="http://www.w3.org/2000/svg" width="16" height="16" viewBox="0 0 256 256" version="1.1"><path d="M 107.400 43.400 C 104.405 46.395, 104 47.420, 104 52 C 104 56.580, 104.405 57.605, 107.400 60.600 L 110.800 64 125.400 64 C 137.669 64, 140 64.238, 140 65.490 C 140 66.628, 103.515 155.401, 90.780 185.250 L 88.754 190 74.954 190 C 61.600 190, 61.055 190.083, 58.106 192.564 C 52.197 197.536, 52.197 206.464, 58.106 211.436 L 61.153 214 103.091 214 L 145.029 214 148.765 210.577 C 152.152 207.472, 152.500 206.674, 152.500 202 C 152.500 197.326, 152.152 196.528, 148.765 193.423 L 145.029 190 130.398 190 L 115.767 190 116.241 187.750 C 116.879 184.728, 165.954 66.839, 167.236 65.250 C 167.952 64.362, 172.128 64, 181.637 64 L 195.029 64 198.630 60.700 C 201.912 57.692, 202.231 56.923, 202.231 52 C 202.231 47.077, 201.912 46.308, 198.630 43.300 L 195.029 40 152.915 40 L 110.800 40 107.400 43.400" stroke="none" fill="#000000" fill-rule="evenodd"/></svg>
