<svg xmlns="http://www.w3.org/2000/svg" width="16" height="16" viewBox="0 0 256 256" version="1.1"><path d="M 181.575 34.010 C 170.535 35.970, 156.860 42.473, 153.800 47.218 C 150.221 52.769, 151.144 59.260, 156.106 63.436 C 160.532 67.160, 165.280 66.847, 174.087 62.250 C 180.869 58.710, 181.782 58.501, 190.386 58.517 C 197.879 58.531, 200.251 58.933, 203.722 60.773 C 210.532 64.384, 214.792 68.777, 217.997 75.494 C 222.086 84.062, 222.255 94.750, 218.431 103 C 214.854 110.719, 167.050 158.734, 159.500 162.191 C 151.921 165.661, 139.495 165.480, 131.979 161.789 C 125.117 158.418, 120.608 154.080, 117.178 147.547 C 114.912 143.231, 114.526 141.252, 114.514 133.880 C 114.501 125.849, 114.756 124.770, 118.250 118.081 C 123.681 107.684, 123.138 101.366, 116.433 96.946 C 108.098 91.452, 100.497 97.081, 93.259 114.105 C 90.764 119.974, 90.541 121.570, 90.555 133.500 C 90.569 144.786, 90.882 147.291, 92.934 152.500 C 106.119 185.964, 144.297 199.455, 174.684 181.387 C 179.101 178.761, 188.710 169.818, 208.296 150.105 C 233.331 124.908, 236.042 121.846, 239.375 115 C 243.170 107.203, 245.965 96.389, 245.965 89.500 C 245.965 76.375, 239.112 60.085, 229.527 50.426 C 217.062 37.865, 197.528 31.178, 181.575 34.010 M 95.230 62.550 C 83.120 65.811, 78.274 69.557, 50.152 97.396 C 23.405 123.874, 19.070 129.011, 14.656 139.456 C 12.193 145.284, 11.597 148.287, 11.204 156.855 C 10.640 169.131, 11.910 175.847, 16.531 185.046 C 21.387 194.711, 26.954 201.156, 35.228 206.690 C 53.684 219.034, 75.462 219.828, 94.723 208.859 C 97.596 207.223, 100.846 204.740, 101.947 203.341 C 108.324 195.233, 103.018 184.009, 92.800 183.996 C 90.962 183.993, 86.228 185.649, 82.117 187.733 C 68.567 194.600, 54.338 193.056, 44.779 183.682 C 38.285 177.313, 35.595 171.072, 35.219 161.500 C 34.706 148.437, 35.991 146.546, 65.807 116.488 C 94.647 87.414, 96.664 85.962, 109.293 85.205 C 116.670 84.763, 117.472 84.929, 124.338 88.322 C 136.182 94.176, 142 103.550, 142 116.780 C 142 122.670, 141.487 124.560, 138 131.500 C 133.227 141.002, 132.854 145.485, 136.480 149.794 C 141.940 156.283, 150.461 156.249, 155.362 149.718 C 165.732 135.897, 169.163 116.058, 163.974 99.919 C 158.149 81.803, 141.598 66.138, 124 62.085 C 117.613 60.614, 101.451 60.875, 95.230 62.550" stroke="none" fill="#000000" fill-rule="evenodd"/></svg>
