<svg xmlns="http://www.w3.org/2000/svg" width="16" height="16" viewBox="0 0 256 256" version="1.1"><path d="M 42.753 47.016 C 34.394 48.456, 27.787 53.854, 23.804 62.500 L 21.500 67.500 21.500 127 L 21.500 186.500 23.870 191.742 C 25.173 194.625, 28.035 198.606, 30.230 200.589 C 38.405 207.975, 31.654 207.500, 128.500 207.500 C 227.380 207.500, 220.954 208.033, 229.266 199.147 C 236.755 191.141, 236.500 193.682, 236.500 127 C 236.500 78.918, 236.235 66.749, 235.118 63.584 C 233.260 58.322, 226.518 51.164, 221 48.595 C 216.552 46.524, 215.521 46.498, 132 46.349 C 85.525 46.266, 45.364 46.566, 42.753 47.016 M 42.930 68.584 C 41.434 70.387, 40.504 80.975, 41.706 82.518 C 42.143 83.079, 45.425 85.924, 49 88.841 C 52.575 91.759, 57.652 96.025, 60.282 98.323 C 62.913 100.620, 65.613 102.670, 66.282 102.878 C 66.952 103.086, 68.712 104.548, 70.194 106.128 C 71.675 107.708, 73.347 109, 73.908 109 C 74.470 109, 75.411 109.900, 76 111 C 76.589 112.100, 77.639 113, 78.333 113 C 79.028 113, 82.193 115.475, 85.366 118.500 C 88.540 121.525, 91.325 124, 91.557 124 C 92.042 124, 92.211 124.135, 105.567 135.255 C 111.104 139.865, 117.525 144.393, 119.837 145.318 C 129.023 148.994, 139.452 146.739, 148.103 139.208 C 156.404 131.981, 163.797 126, 164.428 126 C 164.742 126, 167.574 123.525, 170.722 120.500 C 173.870 117.475, 176.988 115, 177.650 115 C 178.313 115, 179.740 113.875, 180.821 112.500 C 181.903 111.125, 183.121 110, 183.529 110 C 183.937 110, 185.285 108.988, 186.525 107.750 C 187.765 106.513, 195.120 100.325, 202.870 94 L 216.960 82.500 216.980 76.973 C 216.992 73.559, 216.405 70.595, 215.443 69.223 L 213.887 67 129.066 67 C 52.887 67, 44.111 67.161, 42.930 68.584 M 41.215 146.965 C 41.477 180.894, 41.647 184.077, 43.286 185.715 C 44.971 187.400, 49.785 187.500, 129.124 187.500 L 213.177 187.500 215.088 185.139 C 216.892 182.911, 217 180.728, 217 146.389 C 217 114.710, 216.806 110, 215.500 110 C 214.675 110, 214 110.450, 214 111 C 214 111.550, 213.500 112, 212.889 112 C 212.278 112, 203.734 118.750, 193.902 127 C 184.070 135.250, 175.833 142, 175.597 142 C 175.361 142, 173.217 143.847, 170.834 146.103 C 168.450 148.360, 164.813 151.345, 162.750 152.736 C 160.688 154.128, 159 155.656, 159 156.133 C 159 156.610, 158.347 157, 157.550 157 C 156.752 157, 155.740 157.604, 155.300 158.343 C 152.745 162.631, 139.517 167, 129.088 167 C 120.223 167, 107.565 163.281, 103.831 159.578 C 102.549 158.307, 98.418 154.941, 94.650 152.098 C 90.883 149.255, 86.608 145.812, 85.150 144.447 C 77.448 137.234, 43.642 110, 42.390 110 C 41.131 110, 40.969 115.092, 41.215 146.965" stroke="none" fill="#000000" fill-rule="evenodd"/></svg>
