<svg xmlns="http://www.w3.org/2000/svg" width="16" height="16" viewBox="0 0 256 256" version="1.1"><path d="M 37.589 43.077 C 32.634 48.965, 35.436 56.177, 43.281 57.729 L 47.500 58.563 47.500 77.032 L 47.500 95.500 42.500 96.089 C 36.019 96.852, 34.513 97.578, 33.135 100.602 C 30.913 105.479, 32.494 110.993, 36.657 112.890 C 38.153 113.571, 46.005 114, 56.991 114 C 74.428 114, 74.960 113.938, 77.672 111.606 C 79.874 109.712, 80.455 108.357, 80.455 105.111 C 80.455 99.494, 77.788 97, 70.879 96.156 L 65.500 95.500 65 70.500 C 64.725 56.750, 64.138 44.773, 63.695 43.885 C 62.301 41.090, 58.191 40, 49.042 40 C 40.371 40, 40.121 40.067, 37.589 43.077 M 108.313 53.081 C 103.430 54.526, 101 58.321, 101 64.500 C 101 70.864, 103.437 74.465, 108.804 76.030 C 111.298 76.757, 129.462 77.009, 164.678 76.804 C 215.800 76.506, 216.912 76.458, 219.678 74.409 C 221.230 73.260, 223.143 70.499, 223.930 68.275 C 225.169 64.768, 225.169 63.731, 223.929 60.473 C 223.142 58.406, 221.229 55.766, 219.677 54.607 C 216.899 52.532, 216.050 52.497, 164.178 52.319 C 133.505 52.214, 110.169 52.532, 108.313 53.081 M 107.388 115.980 C 103.441 117.575, 101 121.875, 101 127.235 C 101 131.548, 101.446 132.646, 104.400 135.600 L 107.800 139 162.415 139 L 217.029 139 220.765 135.577 C 224.152 132.472, 224.500 131.674, 224.500 127 C 224.500 122.326, 224.152 121.528, 220.765 118.423 L 217.029 115 163.265 115.063 C 133.694 115.098, 108.550 115.511, 107.388 115.980 M 45 141.594 C 37.868 144.684, 29 155.621, 29 161.328 C 29 166.456, 32.465 170.154, 37.399 170.294 C 41.364 170.407, 41.876 170.003, 49.674 160.617 C 53.277 156.281, 59.199 157.623, 60.509 163.074 C 61.225 166.047, 59.489 168.276, 40.750 188.442 C 29.814 200.211, 29 201.364, 29 205.089 C 29 208.005, 29.666 209.757, 31.455 211.545 C 33.901 213.992, 33.978 214, 54.399 214 C 74.570 214, 74.932 213.963, 77.672 211.606 C 79.874 209.712, 80.455 208.357, 80.455 205.111 C 80.455 198.492, 77.825 196.661, 67.407 196.025 L 58.821 195.500 66.770 186.805 C 76.582 176.073, 78.377 172.545, 78.371 164 C 78.367 157.061, 77.063 153.605, 72.327 147.977 C 66.450 140.993, 53.417 137.949, 45 141.594 M 107.378 178.423 C 102.830 180.423, 101 183.625, 101 189.588 C 101 195.858, 103.466 199.473, 108.804 201.030 C 111.298 201.757, 129.462 202.009, 164.678 201.804 C 215.800 201.506, 216.912 201.458, 219.678 199.409 C 221.230 198.260, 223.143 195.499, 223.930 193.275 C 225.169 189.768, 225.169 188.731, 223.929 185.473 C 223.142 183.406, 221.229 180.766, 219.677 179.607 C 216.899 177.533, 216.023 177.496, 163.677 177.276 C 120.419 177.093, 109.918 177.307, 107.378 178.423" stroke="none" fill="#000000" fill-rule="evenodd"/></svg>
