<svg xmlns="http://www.w3.org/2000/svg" width="16" height="16" viewBox="0 0 256 256" version="1.1"><path d="M 45 27.390 C 35.035 29.606, 26.983 35.315, 21.441 44.093 C 16.877 51.323, 15.998 57.466, 16.022 81.960 C 16.046 106.418, 16.652 109.673, 22.118 114.683 C 26.076 118.311, 29.528 119, 43.749 119 C 60.120 119, 64.432 117.531, 68.514 110.566 C 70.851 106.579, 71 105.460, 70.998 91.912 C 70.997 75.501, 70.178 72.784, 63.660 67.571 C 59.931 64.588, 59.457 64.486, 47.160 64 L 34.500 63.500 34.653 60.195 C 34.878 55.365, 39.323 49.281, 44.284 47.016 C 46.603 45.957, 51.148 44.805, 54.384 44.457 C 61.415 43.699, 65 40.836, 65 35.980 C 65 27.352, 58.236 24.448, 45 27.390 M 113.270 27.513 C 102.393 29.876, 92.688 37.940, 87.683 48.775 C 85.661 53.152, 85.477 55.302, 85.184 77.989 C 85.010 91.459, 85.144 103.956, 85.483 105.761 C 86.250 109.847, 91.417 115.858, 95.702 117.649 C 99.657 119.301, 124.492 119.519, 128.685 117.939 C 132.872 116.360, 137.887 111.065, 139.004 107.044 C 140.695 100.960, 140.259 78.412, 138.379 74.700 C 134.118 66.284, 130.577 64.628, 115.500 64 C 104.124 63.526, 103.484 63.387, 103.191 61.327 C 102.736 58.134, 106.475 51.502, 110.432 48.484 C 112.955 46.559, 115.846 45.593, 121.191 44.886 C 127.363 44.070, 128.928 43.456, 131.250 40.944 C 134.352 37.587, 134.664 35.184, 132.530 31.059 C 129.983 26.133, 124.373 25.100, 113.270 27.513 M 34 91.500 L 34 101 43.500 101 L 53 101 53 91.500 L 53 82 43.500 82 L 34 82 34 91.500 M 103 91.500 L 103 101 112.500 101 L 122 101 122 91.500 L 122 82 112.500 82 L 103 82 103 91.500 M 131.500 132.877 C 123.761 134.911, 118.900 139.265, 116.895 145.958 C 116.241 148.138, 115.935 154.956, 116.145 162.647 C 116.478 174.855, 116.668 175.903, 119.246 179.797 C 123.433 186.121, 126.629 187.354, 140 187.802 C 146.325 188.014, 151.894 188.562, 152.375 189.019 C 153.955 190.519, 151.963 196.973, 148.814 200.560 C 144.686 205.261, 142.943 206.069, 134.694 207.105 C 130.452 207.637, 126.900 208.682, 125.722 209.743 C 120.610 214.346, 121.613 221.639, 127.757 224.555 C 130.976 226.082, 132.319 226.154, 138.827 225.142 C 142.901 224.508, 148.094 223.155, 150.367 222.133 C 156.641 219.315, 163.262 212.850, 167.073 205.821 L 170.500 199.500 170.810 172.742 C 171.115 146.396, 171.084 145.922, 168.820 141.894 C 167.445 139.447, 164.737 136.758, 162.078 135.200 C 158.082 132.858, 156.472 132.571, 146.068 132.342 C 139.705 132.203, 133.150 132.443, 131.500 132.877 M 197.871 133.565 C 192.305 135.278, 186.404 141.331, 185.476 146.276 C 185.126 148.144, 184.988 155.745, 185.169 163.168 C 185.490 176.269, 185.584 176.774, 188.384 180.441 C 192.881 186.331, 197.592 187.952, 210.281 187.978 C 222.789 188.004, 223.418 188.486, 220.395 195.743 C 217.519 202.645, 212.729 205.970, 204.100 207.054 C 195.443 208.141, 193.648 209.022, 192.002 212.995 C 188.808 220.707, 194.914 226.599, 205 225.537 C 221.326 223.817, 232.986 215.007, 238.067 200.550 C 239.772 195.699, 240 192.209, 240 170.985 C 240 148.931, 239.834 146.594, 238.009 143.018 C 235.605 138.306, 230.904 134.580, 225.500 133.104 C 219.918 131.579, 203.426 131.854, 197.871 133.565 M 134 160.500 L 134 170 143.500 170 L 153 170 153 160.500 L 153 151 143.500 151 L 134 151 134 160.500 M 203 160.500 L 203 170 212.500 170 L 222 170 222 160.500 L 222 151 212.500 151 L 203 151 203 160.500" stroke="none" fill="#000000" fill-rule="evenodd"/></svg>
