<svg xmlns="http://www.w3.org/2000/svg" width="16" height="16" viewBox="0 0 256 256" version="1.1"><path d="M 34.923 47.923 C 32.004 50.843, 32 50.861, 32 63.367 C 32 75.158, 32.141 76.052, 34.411 78.694 C 36.759 81.426, 37.130 81.509, 48.492 81.838 C 66.939 82.372, 68.500 80.989, 68.500 64.100 C 68.500 58.270, 68.156 52.271, 67.736 50.768 C 66.466 46.230, 62.570 45, 49.473 45 C 37.956 45, 37.819 45.028, 34.923 47.923 M 96.445 52.049 C 91.092 53.638, 88.500 57.394, 88.500 63.561 C 88.500 68.327, 88.884 69.346, 91.769 72.231 L 95.038 75.500 155.946 75.500 C 216.328 75.500, 216.877 75.482, 219.676 73.393 C 221.228 72.234, 223.142 69.594, 223.929 67.527 C 225.169 64.269, 225.169 63.232, 223.930 59.725 C 223.143 57.501, 221.230 54.740, 219.678 53.591 C 216.897 51.531, 215.995 51.497, 158.178 51.321 C 125.377 51.221, 98.153 51.542, 96.445 52.049 M 37.329 108.458 C 35.585 109.216, 33.672 110.744, 33.079 111.853 C 31.544 114.721, 31.712 136.871, 33.293 140 C 35.220 143.816, 40.881 145.254, 52.010 144.754 C 62.154 144.299, 65.248 143.273, 67.141 139.737 C 67.793 138.517, 68.520 133.240, 68.754 128.010 C 69.550 110.276, 66.598 106.975, 50 107.041 C 44.204 107.064, 39.263 107.616, 37.329 108.458 M 93.763 115.565 C 88.459 118.443, 86.473 126.146, 89.517 132.033 C 92.676 138.142, 91.067 138, 156.965 138 L 217.029 138 220.765 134.577 C 224.152 131.472, 224.500 130.674, 224.500 126 C 224.500 121.326, 224.152 120.528, 220.765 117.423 L 217.029 114 156.765 114.040 C 105.410 114.074, 96.095 114.300, 93.763 115.565 M 36.364 171.170 C 32.863 172.865, 32 176.415, 32 189.124 C 32 201.087, 32.016 201.170, 34.923 204.077 C 37.819 206.972, 37.956 207, 49.473 207 C 62.570 207, 66.466 205.770, 67.736 201.232 C 68.156 199.729, 68.500 193.730, 68.500 187.899 C 68.500 176.355, 67.466 172.989, 63.343 171.110 C 60.294 169.721, 39.260 169.767, 36.364 171.170 M 95.500 177.390 C 90.308 179.703, 88.500 182.595, 88.500 188.586 C 88.500 193.324, 88.888 194.349, 91.769 197.231 L 95.038 200.500 155.946 200.500 C 216.328 200.500, 216.877 200.482, 219.676 198.393 C 221.228 197.234, 223.142 194.594, 223.929 192.527 C 225.169 189.269, 225.169 188.232, 223.930 184.725 C 223.143 182.501, 221.230 179.740, 219.677 178.591 C 216.897 176.531, 215.967 176.497, 157.677 176.277 C 110.079 176.097, 97.913 176.315, 95.500 177.390" stroke="none" fill="#000000" fill-rule="evenodd"/></svg>
