<svg xmlns="http://www.w3.org/2000/svg" width="16" height="16" viewBox="0 0 256 256" version="1.1"><path d="M 48.304 40.956 C 41.890 44.867, 41.556 56.697, 47.746 60.754 C 49.211 61.714, 52.905 62.725, 55.955 63 L 61.500 63.500 62.092 94 C 62.558 117.969, 63.038 125.735, 64.334 130.267 C 75.134 168.028, 117.775 186.350, 153.144 168.427 C 164.154 162.848, 175.948 150.053, 180.732 138.500 C 185.146 127.839, 185.338 126.216, 185.926 94.500 L 186.500 63.500 192.045 63 C 195.095 62.725, 198.789 61.714, 200.254 60.754 C 206.444 56.697, 206.110 44.867, 199.696 40.956 C 196.778 39.177, 194.541 39.007, 174 39.007 C 153.459 39.007, 151.222 39.177, 148.304 40.956 C 141.890 44.867, 141.556 56.697, 147.746 60.754 C 149.211 61.714, 152.905 62.725, 155.955 63 L 161.500 63.500 161.766 90.938 C 162.066 121.771, 161.537 125.424, 155.425 134.746 C 143.150 153.466, 114.480 156.605, 98.246 141.005 C 92.326 135.317, 88.320 127.840, 87.026 120.065 C 86.379 116.171, 86.049 103.329, 86.217 88.500 L 86.500 63.500 92.045 63 C 95.095 62.725, 98.789 61.714, 100.254 60.754 C 106.444 56.697, 106.110 44.867, 99.696 40.956 C 96.778 39.177, 94.541 39.007, 74 39.007 C 53.459 39.007, 51.222 39.177, 48.304 40.956 M 42.763 190.556 C 37.456 193.454, 35.474 201.148, 38.517 207.033 C 41.761 213.306, 38.063 213.062, 125.462 212.768 L 204.955 212.500 207.728 209.727 C 210.137 207.318, 210.500 206.174, 210.500 201 C 210.500 195.826, 210.137 194.682, 207.728 192.273 L 204.955 189.500 125.228 189.280 C 56.078 189.090, 45.137 189.259, 42.763 190.556" stroke="none" fill="#000000" fill-rule="evenodd"/></svg>
