<svg xmlns="http://www.w3.org/2000/svg" width="24" height="16" viewBox="0 0 24 16">
	<rect width="24" height="16" fill="#de2910"/>
	<g fill="#ffde00">
		<polygon points="4.000,1.6 4.539,3.258 6.283,3.258 4.872,4.283 5.411,5.942 4.000,4.917 2.589,5.942 3.128,4.283 1.717,3.258 3.461,3.258"/>
		<polygon points="7.314,2.012 7.696,1.573 7.397,1.075 7.931,1.302 8.313,0.864 8.262,1.443 8.797,1.67 8.230,1.801 8.179,2.38 7.880,1.881"/>
		<polygon points="8.808,3.313 9.330,3.057 9.248,2.482 9.652,2.899 10.174,2.643 9.903,3.157 10.307,3.574 9.735,3.474 9.463,3.988 9.381,3.413"/>
		<polygon points="8.831,5.38 9.412,5.359 9.571,4.801 9.771,5.347 10.351,5.326 9.894,5.684 10.093,6.23 9.611,5.905 9.153,6.264 9.313,5.705"/>
		<polygon points="7.375,6.7 7.919,6.905 8.282,6.451 8.255,7.032 8.799,7.237 8.239,7.391 8.212,7.971 7.892,7.486 7.332,7.64 7.695,7.186"/>
	</g>
</svg>
